<?xml version="1.0" encoding="utf-8"?>
<!-- Generator: Adobe Illustrator 20.0.0, SVG Export Plug-In . SVG Version: 6.00 Build 0)  -->
<svg version="1.1" id="Layer_1" xmlns="http://www.w3.org/2000/svg" xmlns:xlink="http://www.w3.org/1999/xlink" x="0px" y="0px"
	 viewBox="0 0 585.4 183.1" style="enable-background:new 0 0 585.4 183.1;" xml:space="preserve">
<style type="text/css">
	.st0{fill:#CA281B;}
</style>
<title>jrs66-logo</title>
<path class="st0" d="M76.4,123.5c0,41.1-13.4,59.7-52.4,59.7c-6.5,0-17.8-0.5-24-2.3v-30.5c5.8,0.7,11.7,1,17.6,1
	c17.5,0,20.4-11.8,20.4-25.3V2.6h38.4V123.5z"/>
<path class="st0" d="M141.1,109.3v71.3h-37.7V2.6h78.3c38.7,0,59.7,21.2,59.7,48.8c0,23.8-12.9,36.7-25.8,42.1
	c8.8,3.4,22.2,12.4,22.2,44.4v8.8c0,11.9,0,25.6,2.6,33.8h-36.7c-3.1-7.7-3.6-21.2-3.6-40V138c0-19.4-4.9-28.7-33.6-28.7
	L141.1,109.3L141.1,109.3z M141.1,78.5h32.3c20.9,0,29.2-8,29.2-22.7c0-14.5-9.6-22.7-28.4-22.7h-33.1
	C141.1,33.1,141.1,78.5,141.1,78.5z"/>
<path class="st0" d="M299,128.4c4.1,17.8,16.8,25.8,37.5,25.8s29.4-8.3,29.4-21.2c0-14.7-8.5-20.9-39-27.9
	c-48.6-11.4-60.4-29.2-60.4-53.2c0-31,23.3-51.9,65.3-51.9c47.3,0,66.1,25.3,68.7,51.4h-38.7c-2.1-11.1-8-23-31-23
	c-15.8,0-25,6.5-25,19.1c0,12.4,7.5,17.6,36.4,24c51.6,12.4,63,31.5,63,56.8c0,32.3-24.5,54.8-71.5,54.8
	c-45.2,0-69.2-22.2-73.4-54.8L299,128.4L299,128.4z"/>
<path class="st0" d="M417.7,72.4c0-12.6,8.9-20.5,16.3-23.8c-7.7-4.7-12.2-10.7-12.2-20.6c0-16.9,12.2-28,34.5-28
	c20.5,0,33.9,10.5,33.9,27.7c0,11.4-5.9,17-12.6,19.9c9.8,4,16.1,13.5,16.1,24.1c0,20.5-16.3,31-38.8,31
	C434.4,102.6,417.7,92,417.7,72.4z M472,71.3c0-9.8-6.8-14.3-16.4-14.3c-10.7,0-16.3,5.9-16.3,14.1c0,8.9,6.6,14.8,16.7,14.8
	C465.2,85.9,472,81.4,472,71.3z M442,28.7c0,6.6,4.8,11.1,14,11.1c8.7,0,13.5-3.3,13.5-11.1c0-7.5-5-12.2-13.8-12.2
	C446.7,16.5,442,20.9,442,28.7z"/>
<path class="st0" d="M561.9,25.9c-1.2-4.8-3.9-9.5-12.7-9.5c-13.2,0-16.7,12.3-17.3,25.7c4.2-5.1,11.3-9.1,22.4-9.1
	c18.2,0,31,13.4,31,32.8c0,21.2-13.5,36.9-36.3,36.9c-28.8,0-38.4-22.1-38.4-50.1c0-25.8,9.2-52.6,39.6-52.6
	c21.5,0,31.5,13.5,32.5,25.9H561.9z M563.9,67.6c0-9.5-3.5-17.9-15.3-17.9c-9.6,0-15.2,5.7-15.2,17.1c0,8,3.8,18.7,15.2,18.7
	C559,85.5,563.8,77.7,563.9,67.6L563.9,67.6z"/>
</svg>
